<?xml version="1.0" ?><svg id="outline" viewBox="0 0 340 340" xmlns="http://www.w3.org/2000/svg"><title/><path d="M157.376,83.467a4,4,0,0,0,3.453-6.013c-9.713-16.689-15.262-37.892-16.5-63.019a4,4,0,1,0-7.99.392c1.3,26.419,7.208,48.844,17.571,66.651A4,4,0,0,0,157.376,83.467Z"/><path d="M165.27,121.392c13.6,11.318,30.109,18.947,49.125,22.677a95.4,95.4,0,0,0,28.933,1.217,4.1,4.1,0,0,0,3.689-4.042,3.992,3.992,0,0,0-4.446-3.923,87.508,87.508,0,0,1-26.637-1.1c-17.278-3.391-32.289-10.206-44.687-20.268a87.457,87.457,0,0,0,6.411-7.115c12.357,9.624,27.082,16.108,43.849,19.275a74.09,74.09,0,0,0,13.777,1.3,73.428,73.428,0,0,0,14.613-1.472,4.1,4.1,0,0,0,3.3-4.368,4,4,0,0,0-4.78-3.495,65.518,65.518,0,0,1-25.425.176c-15.577-2.942-29.211-8.95-40.594-17.86,9.765-14.651,15.355-32.438,16.313-52.4A127.757,127.757,0,0,0,195.4,13.577a4,4,0,0,0-7.718,2.105c.159.583,15.388,58.792-23.131,95.667-23.925,22.906-58.617,29.637-88.374,17.15-.649-.272-1.279-.569-1.917-.857.35-4.138.65-7.287.855-9.327.1-1,.166-1.97.215-2.926a61.562,61.562,0,0,0,19.339,8.069,64.34,64.34,0,0,0,14.494,1.64,67.189,67.189,0,0,0,34.69-9.685,79.564,79.564,0,0,0,30.37-32.9c9.282-18.552,12.192-41.568,8.649-68.406a4,4,0,0,0-4.685-3.412,4.152,4.152,0,0,0-3.216,4.69c7.186,54.98-15.2,81.022-35.266,93.188a58.636,58.636,0,0,1-43.233,7.09A52.914,52.914,0,0,1,74.754,105.11c-.947-5.1-2.9-8.36-5.924-9.906a8.012,8.012,0,0,0-4.3-.838c-1.145-1.537-2.22-3.125-3.239-4.752a21.658,21.658,0,0,0-.8-10,20.247,20.247,0,0,0-8.656-10.686c-8.594-26.287-7.275-53.582-7.247-54.071A4,4,0,0,0,36.6,14.4a177.439,177.439,0,0,0,5.049,48.46Q43,68.191,44.687,73.081c.006.014.009.03.015.044a102.377,102.377,0,0,0,8.114,18.063,35.219,35.219,0,0,1-3.536,8.127,4.1,4.1,0,0,0,1.036,5.35,4,4,0,0,0,5.823-1.228c.79-1.367,1.483-2.708,2.1-4.029.4.525.8,1.037,1.208,1.547.009.016.014.033.023.049a3.947,3.947,0,0,0,.659.8,67.746,67.746,0,0,0,7.114,7.446l0,.009a43.076,43.076,0,0,1-.1,8.258c-.149,1.482-.348,3.551-.58,6.149-29.945-17.8-45.759-55.207-45.887-109.044a4,4,0,0,0-4-3.99h-.009a4.006,4.006,0,0,0-3.991,4.02c.066,27.072,3.925,48.44,10.07,65.307-7.465,8.707-10.03,19.969-10.631,23.15-13.727,21.773-.225,45.174.364,46.171a4,4,0,0,0,6.361.7c14.858-15.848,13.786-28.443,10.193-36.281a4.128,4.128,0,0,0-5.107-2.267,4,4,0,0,0-2.234,5.452c3.226,6.873,1.625,14.59-4.752,22.992-2.682-7.123-5.7-20.25,1.84-32.366a9.283,9.283,0,0,0,.8-1.572h0a9,9,0,0,0,.43-1.49,48.3,48.3,0,0,1,6.258-15.842c6.588,14.561,15,25.231,23.951,33.041-1.787,5.328-5.076,17.646-2.906,31.193a46.05,46.05,0,0,0,11.336,23.3c1.569,1.756,3.1,3.568,4.589,5.391A1124.083,1124.083,0,0,0,65.6,297.709c-.177-.119-.35-.242-.532-.356a25.744,25.744,0,0,1-9.655-11.792,32.013,32.013,0,0,1,2.376-18.486,4.133,4.133,0,0,0-1.834-5.3,4,4,0,0,0-5.464,2.02c-3.42,8.064-4.386,16.012-2.868,23.621a4.04,4.04,0,0,0,.127.48A33.485,33.485,0,0,0,60.8,304.118a12.874,12.874,0,0,1,6.133,9.767l.014.166.011.062a46.367,46.367,0,0,1,.485,5.2,4,4,0,0,0,3.986,3.736c.129,0,.26-.006.391-.019a4,4,0,0,0,3.6-4.367c-2.367-24.428-3.678-48.06-4.287-70.04.389-.362.773-.731,1.17-1.085a60.118,60.118,0,0,0,5.988-6.137,40.776,40.776,0,0,0,5.36-43.8,4.138,4.138,0,0,0-5.117-2.219,4,4,0,0,0-2.188,5.484,32.781,32.781,0,0,1-4.172,35.378q-.624.739-1.29,1.466c-.789-43.959,1.133-80.329,2.711-101.639a87.366,87.366,0,0,0,16.122,4.9c1.1.405,7.891,3.145,13.966,10.961-3.2,8.694-3.1,16.842.324,24.248,7.305,15.79,27.144,22.09,27.985,22.351a4.007,4.007,0,0,0,4.649-1.815,4.143,4.143,0,0,0,.535-2.121l-.03-19.889c.527-13.142-6.073-19.79-11.71-23.055a4,4,0,0,0-5.672,1.863,4.162,4.162,0,0,0,1.855,5.172c5.381,3.2,7.845,8.365,7.531,15.772,0,.058,0,.116,0,.175l.021,14.136c-5.581-2.638-14.152-7.817-17.914-15.979a21.055,21.055,0,0,1-1.646-11.935c1.1,1.771,2.3,3.745,3.491,5.794a4,4,0,0,0,5.806,1.234,4.112,4.112,0,0,0,1.03-5.393c-4.117-7.081-8.237-13.146-8.439-13.441a47.627,47.627,0,0,0-5.332-6.381c.29,0,.58.021.869.021A91.1,91.1,0,0,0,165.27,121.392ZM63.67,169.666a37.779,37.779,0,0,1-8.451-18.093c-1.576-9.841.237-19.151,1.759-24.613a83.875,83.875,0,0,0,8.867,5.473C65.124,141.736,64.3,154.4,63.67,169.666Z"/><path d="M115.626,66.481a4,4,0,1,0,5.672-5.642c-13.487-13.554-38.082-8.214-39.121-7.98a4.008,4.008,0,0,0-1.657,7c.061.05,6.1,5.129,14.111,18.818,4.082,6.979,10.382,9.272,16.625,9.272a34.333,34.333,0,0,0,14.35-3.492c7.565,3.167,15.3,9.318,17.254,10.923l.028.046a4,4,0,0,0,6.8-4.211c-21.41-34.575-20.324-76.035-20.31-76.45a4,4,0,0,0-8-.267c-.052,1.544-.916,33.358,13.441,65.623a53.642,53.642,0,0,0-8.085-3.808c-8.291-3-11.329-6.863-11.455-7.026a4,4,0,0,0-6.543,4.6,23.372,23.372,0,0,0,6.467,5.678c-4.768.951-10.446.585-13.673-4.929A114.228,114.228,0,0,0,91.322,59.727C98.474,59.292,109.13,59.951,115.626,66.481Z"/><path d="M272.569,166.137l-.022.053a4.165,4.165,0,1,0,.022-.053Z"/><path d="M252.374,49.466c-8.375-2.867-22.513-2.8-31.368,13.572a17.949,17.949,0,0,1-5.057,5.9,16.17,16.17,0,0,1-4.678,2.414,4,4,0,0,0-.923,7.189c.437.276,10.8,6.756,23.272,6.755h.125a25.273,25.273,0,0,0,20.26-10.316,4,4,0,0,0-6.461-4.716A17.244,17.244,0,0,1,233.718,77.3,36.756,36.756,0,0,1,221.3,74.918a26.154,26.154,0,0,0,6.739-8.074c5.646-10.439,13.4-11.391,18.518-10.585a37.038,37.038,0,0,1-9.144,6.805,4,4,0,0,0,3.324,7.277,46.629,46.629,0,0,0,15.951-13.509l.023-.028c.019-.026.04-.049.059-.075a50.591,50.591,0,0,1,8.252-8.458c2.113,38.472,1.345,100.645-21.7,131.741a35.116,35.116,0,0,1-9.355,8.709,17.348,17.348,0,0,0-12.172,2.506,15.2,15.2,0,0,0-3.051,2.754,33.834,33.834,0,0,1-4,.149,32.706,32.706,0,0,1-26.7-14.478c-5.852-8.618-9.678-20.639-11.372-35.728a4,4,0,0,0-3.97-3.556h-.005a4,4,0,0,0-3.974,3.545c-.2,1.777-4.729,43.776,17.687,64.614a40.166,40.166,0,0,0,14.72,8.734,3.98,3.98,0,0,0,5.242-3.189l.012-.083a3.978,3.978,0,0,0-2.663-4.342,32.157,32.157,0,0,1-11.848-6.964c-6.02-5.589-9.775-13.221-12.088-21.106q.795,1.323,1.64,2.569a40.615,40.615,0,0,0,33.153,17.982c.071,0,.143,0,.215,0a32.492,32.492,0,0,0-.819,4.939,32.079,32.079,0,0,0,3.954,18.986l.234.4a10.083,10.083,0,0,0,8.72,4.968c.357,0,.717-.019,1.079-.056a10.063,10.063,0,0,0,8.567-6.768,41.066,41.066,0,0,0,2-8.426,62.067,62.067,0,0,0,20.079-13.727c-.213,7.83-.461,18.905-.55,30.526a67.323,67.323,0,0,1-5.02-11.168,4,4,0,0,0-7.672,2.264c.126.433,3.154,10.488,12.68,23.977.073,10.166.332,19.853.909,27.23.047,1.77.717,27.569-.915,49.809a4,4,0,0,0,3.7,4.282c.1.008.2.011.3.011a4,4,0,0,0,3.985-3.707c.624-8.5.917-17.5,1.037-25.516,13.982-13.116,13.531-26.756,10.6-36a4,4,0,1,0-7.625,2.417,23.858,23.858,0,0,1-2.9,21.246c-.028-7.641-.174-12.753-.177-12.87,0-.065,0-.13-.011-.2-1.861-23.624-.314-73.512-.032-81.977a98.858,98.858,0,0,0,5.781-8.8,4,4,0,1,0-6.91-4.031,90.735,90.735,0,0,1-5.948,8.963c-.063.079-.124.156-.181.24a66.985,66.985,0,0,1-14.8,14.507,22.375,22.375,0,0,1-.989-12.445,42.881,42.881,0,0,0,5.879-6.421c36.572-49.349,20.973-165.76,20.291-170.692a4,4,0,0,0-7.924,1.1c.045.325,1.274,9.5,2.3,23.589A60.226,60.226,0,0,0,252.374,49.466Zm-23.4,172.506a2.1,2.1,0,0,1-1.824,1.432,2.144,2.144,0,0,1-2.106-1.041l-.18-.307a21.949,21.949,0,0,1-1.266-2.631q3.1-.281,6.357-.843C229.69,219.693,229.378,220.819,228.978,221.972Zm-7.105-10.442a27.072,27.072,0,0,1,.077-3.747,19.419,19.419,0,0,1,1.557-6.45,42.78,42.78,0,0,0,11.957-4.255,31.819,31.819,0,0,0,2.408,10.674C235.09,208.83,228.052,211.53,221.873,211.53Z"/><path d="M277.711,151.415a4,4,0,0,0-.084.458c-.014.113-.025.225-.03.337,0,.143,0,.284.008.427.009.117.019.233.037.348a3.934,3.934,0,0,0,.09.412c.029.111.061.221.1.329a3.915,3.915,0,0,0,.168.388c.052.108.107.212.168.314s.145.223.226.331a3.859,3.859,0,0,0,.259.312c.044.047.076.1.123.148a36.94,36.94,0,0,1,3.555,4.076,44.364,44.364,0,0,1,7.016,14.208,82.84,82.84,0,0,0,5.724,13.56,4,4,0,0,0,7.039-3.8c-.021-.041-1.435-2.679-2.89-6.077,10.448,8.054,11.311,21.6,10.982,28.486-9.816-2.868-15.491-8.407-16.89-16.5a4,4,0,0,0-7.883,1.361c1.522,8.814,7.533,20.136,27.528,24.029a4.118,4.118,0,0,0,.764.073,4,4,0,0,0,3.94-3.308c2.123-12.081.016-36.757-22.546-45.479a50.37,50.37,0,0,0-6.4-11.37c-.856-1.132-1.751-2.2-2.669-3.215a209.5,209.5,0,0,0,5.276-25.6c.04-.029.084-.05.123-.081a93.513,93.513,0,0,0,22.477-25.713c13.331-22.444,20.09-51.121,20.09-85.235a4,4,0,0,0-8,0c0,32.656-6.381,59.959-18.969,81.149a85.708,85.708,0,0,1-14.278,18.028q.654-6.573,1.036-13.494c28.151-34.914,27.68-83.676,27.645-85.75a4,4,0,0,0-4-3.932h-.065a4,4,0,0,0-3.935,4.062c.006.434.349,39.475-19.158,71.079a513.464,513.464,0,0,0-4.542-71.65,4,4,0,1,0-7.936,1.014c7.184,56.239,5.814,102.035-4.071,136.115C277.725,151.307,277.724,151.361,277.711,151.415Z"/></svg>